<svg width="80" height="80" viewBox="0 0 80 80" fill="none" xmlns="http://www.w3.org/2000/svg">
<path d="M57.5013 10L53.8896 22.8167L46.668 26.5883L53.8896 30.3583L57.5013 41.6667L61.113 30.3567L68.3346 26.5867L61.113 22.8183L57.5013 10Z" fill="#FA6970"/>
<path d="M33.3346 20L31.668 26.6667L26.668 28.3333L31.668 30L33.3346 36.6667L35.0013 30L40.0013 28.3333L35.0013 26.6667L33.3346 20Z" fill="#FA6970"/>
<path d="M10 49.9997C10 49.5576 10.1756 49.1337 10.4882 48.8212C10.8007 48.5086 11.2246 48.333 11.6667 48.333H16.6667C17.1087 48.333 17.5326 48.5086 17.8452 48.8212C18.1577 49.1337 18.3333 49.5576 18.3333 49.9997V68.3263C18.3333 68.7684 18.1577 69.1923 17.8452 69.5049C17.5326 69.8174 17.1087 69.993 16.6667 69.993H11.6667C11.2246 69.993 10.8007 69.8174 10.4882 69.5049C10.1756 69.1923 10 68.7684 10 68.3263V50.0013V49.9997Z" fill="#FA6970"/>
<path d="M29.5096 48.6478C31.063 47.9395 34.8596 48.6478 34.8596 48.6478L45.903 51.1245C45.903 51.1245 48.6646 52.0095 51.253 52.0095C53.8413 52.0095 52.293 55.5528 50.5613 56.7895C48.8313 58.0262 47.5713 57.9595 47.5713 57.9595L38.6546 57.8512C38.6546 57.8512 46.4213 59.2678 49.3546 59.4445C50.8396 59.5345 53.388 58.4878 56.238 57.3195C59.013 56.1795 62.0713 54.9245 64.7113 54.4878C70.0613 53.6045 70.9246 58.3828 69.198 60.1528C67.473 61.9228 53.668 68.6478 51.253 69.5328C49.3596 70.2262 47.0713 69.9961 44.4896 69.7361C43.7746 69.6645 43.0363 69.5895 42.2796 69.5328C39.263 69.3045 36.9596 68.5712 34.6796 67.8462C32.233 67.0695 29.8146 66.3012 26.5763 66.1695C25.4896 66.1262 22.9463 66.2611 21.668 66.3361V51.5662C23.878 50.7795 28.353 49.1728 29.5096 48.6462V48.6478Z" fill="#FA6970"/>
</svg>
