<svg width="80" height="80" viewBox="0 0 80 80" fill="none" xmlns="http://www.w3.org/2000/svg">
<path d="M53.332 36.667C58.8654 36.667 63.2987 32.2003 63.2987 26.667C63.2987 21.1337 58.8654 16.667 53.332 16.667C47.7987 16.667 43.332 21.1337 43.332 26.667C43.332 32.2003 47.7987 36.667 53.332 36.667ZM26.6654 36.667C32.1987 36.667 36.632 32.2003 36.632 26.667C36.632 21.1337 32.1987 16.667 26.6654 16.667C21.132 16.667 16.6654 21.1337 16.6654 26.667C16.6654 32.2003 21.132 36.667 26.6654 36.667ZM26.6654 43.3337C18.8987 43.3337 3.33203 47.2337 3.33203 55.0003V60.0003C3.33203 61.8337 4.83203 63.3337 6.66536 63.3337H46.6654C48.4987 63.3337 49.9987 61.8337 49.9987 60.0003V55.0003C49.9987 47.2337 34.432 43.3337 26.6654 43.3337ZM53.332 43.3337C52.3654 43.3337 51.2654 43.4003 50.0987 43.5003C50.1654 43.5337 50.1987 43.6003 50.232 43.6337C54.032 46.4003 56.6654 50.1003 56.6654 55.0003V60.0003C56.6654 61.167 56.432 62.3003 56.0654 63.3337H73.332C75.1654 63.3337 76.6654 61.8337 76.6654 60.0003V55.0003C76.6654 47.2337 61.0987 43.3337 53.332 43.3337Z" fill="#FA6970"/>
</svg>
